# xmcd
#
# Track frame offsets:
#	150
#	20024
#	39721
#	56488
#	74786
#	98614
#	119035
#	139376
#	155653
#	167089
#	189929
#	202763
#
# Disc length: 2864 seconds
#
# Revision: 0
# Processed by: cddbd v1.5.2PL0 Copyright (c) Steve Scherf et al.
# Submitted via: dBpowerAMP V4.0
#
DISCID=af0b2e0c
DTITLE=Bateria Rio de Janeiro - É 10 na Sapucaí
DYEAR=1990
DGENRE=Samba Enredo
TTITLE0=Obrigado Bateria1
TTITLE1=Obrigado Bateria2
TTITLE2=Obrigado Bateria3
TTITLE3=Obrigado Bateria4
TTITLE4=Obrigado Bateria5
TTITLE5=Obrigado Bateria6
TTITLE6=Obrigado Bateria7
TTITLE7=Obrigado Bateria8
TTITLE8=Obrigado Bateria9
TTITLE9=Obrigado Bateria10
TTITLE10=Obrigado Bateria11
TTITLE11=Obrigado Bateria12
EXTD=
EXTT0=
EXTT1=
EXTT2=
EXTT3=
EXTT4=
EXTT5=
EXTT6=
EXTT7=
EXTT8=
EXTT9=
EXTT10=
EXTT11=
PLAYORDER=
